
<svg width="116" height="31" viewBox="0 0 116 31" fill="none" xmlns="http://www.w3.org/2000/svg">
<path d="M13.5241 7.04C11.2841 7.04 9.59073 7.53333 8.44406 8.52C7.2974 9.48 6.72406 10.9333 6.72406 12.88V14.6H18.2441V19.8H6.72406V30H0.244063V12.92C0.244063 9.32 1.36406 6.52 3.60406 4.52C5.87073 2.52 9.03073 1.52 13.0841 1.52C14.6841 1.52 16.1907 1.69333 17.6041 2.04C19.0174 2.36 20.2441 2.84 21.2841 3.48L19.2841 8.6C17.6841 7.56 15.7641 7.04 13.5241 7.04ZM45.2825 8.48V30H39.3225V27.52C37.7758 29.3867 35.5358 30.32 32.6025 30.32C30.5758 30.32 28.7358 29.8667 27.0825 28.96C25.4558 28.0533 24.1758 26.76 23.2425 25.08C22.3092 23.4 21.8425 21.4533 21.8425 19.24C21.8425 17.0267 22.3092 15.08 23.2425 13.4C24.1758 11.72 25.4558 10.4267 27.0825 9.52C28.7358 8.61333 30.5758 8.16 32.6025 8.16C35.3492 8.16 37.4958 9.02667 39.0425 10.76V8.48H45.2825ZM33.6825 25.2C35.2558 25.2 36.5625 24.6667 37.6025 23.6C38.6425 22.5067 39.1625 21.0533 39.1625 19.24C39.1625 17.4267 38.6425 15.9867 37.6025 14.92C36.5625 13.8267 35.2558 13.28 33.6825 13.28C32.0825 13.28 30.7625 13.8267 29.7225 14.92C28.6825 15.9867 28.1625 17.4267 28.1625 19.24C28.1625 21.0533 28.6825 22.5067 29.7225 23.6C30.7625 24.6667 32.0825 25.2 33.6825 25.2ZM58.7797 30.32C56.353 30.32 54.4597 29.68 53.0997 28.4C51.7397 27.0933 51.0597 25.2533 51.0597 22.88V0.319998H57.2997V22.52C57.2997 23.4267 57.5264 24.1333 57.9797 24.64C58.4597 25.12 59.1264 25.36 59.9797 25.36C60.2997 25.36 60.6197 25.32 60.9397 25.24C61.2864 25.16 61.553 25.0667 61.7397 24.96L62.0197 29.8C60.9797 30.1467 59.8997 30.32 58.7797 30.32ZM86.5325 8.48V30H80.5725V27.52C79.0258 29.3867 76.7858 30.32 73.8525 30.32C71.8258 30.32 69.9858 29.8667 68.3325 28.96C66.7058 28.0533 65.4258 26.76 64.4925 25.08C63.5592 23.4 63.0925 21.4533 63.0925 19.24C63.0925 17.0267 63.5592 15.08 64.4925 13.4C65.4258 11.72 66.7058 10.4267 68.3325 9.52C69.9858 8.61333 71.8258 8.16 73.8525 8.16C76.5992 8.16 78.7458 9.02667 80.2925 10.76V8.48H86.5325ZM74.9325 25.2C76.5058 25.2 77.8125 24.6667 78.8525 23.6C79.8925 22.5067 80.4125 21.0533 80.4125 19.24C80.4125 17.4267 79.8925 15.9867 78.8525 14.92C77.8125 13.8267 76.5058 13.28 74.9325 13.28C73.3325 13.28 72.0125 13.8267 70.9725 14.92C69.9325 15.9867 69.4125 17.4267 69.4125 19.24C69.4125 21.0533 69.9325 22.5067 70.9725 23.6C72.0125 24.6667 73.3325 25.2 74.9325 25.2ZM101.55 21.56L98.5497 24.52V30H92.3097V0.319998H98.5497V17.12L107.67 8.48H115.11L106.15 17.6L115.91 30H108.35L101.55 21.56Z" fill="white"/>
</svg>
